<svg xmlns="http://www.w3.org/2000/svg" viewBox="0 0 259.16 100.24"><title>arrow</title><g id="Layer_2" data-name="Layer 2"><g id="Layer_1-2" data-name="Layer 1"><path d="M33.44,34.14l-.26-.2.26.2ZM186.53,49.82l-.44.18.44-.18Zm17.1-18.41,9.09-2.18c1.21-.29,2.4-.67,3.59-1l5.33-1.49c1.87-.53,3.73-1.13,5.58-1.74l-2.06,1.94c-1.5,1.41-3.1,2.71-4.73,4-1.1.85-2.22,1.66-3.37,2.44-3.89.14-7.8-.08-11.68-.22-2.68-.1-5.34-.25-8-.42,2.08-.39,4.18-.79,6.25-1.29Zm26.08-1.68.93-.78-2.76,2.4-.26.1c.7-.57,1.4-1.14,2.09-1.72Zm18.51-6.27a4.29,4.29,0,0,0-2.08-3.62,4.17,4.17,0,0,0-4.22,0c-.83.53-1.67,1.05-2.48,1.62l.05,0a5.26,5.26,0,0,0,.71-.62c.31-.39.62-.78.9-1.19a3.88,3.88,0,0,0,.41-3.12,4.08,4.08,0,0,0-2.83-2.83,7.17,7.17,0,0,0-1.82-.32,10.69,10.69,0,0,0-2.23.36c-.63.14-1.26.34-1.88.54l-3.51,1.11c-1.53.48-3.05,1-4.58,1.49s-3.13,1.07-4.71,1.55l-6.45,1.95c-3.58,1.08-7.19,2-10.8,3S195.59,25,192,25.85c-1.3.3-2.63.48-4,.68l-5.17.79c-3.27.34-6.54.57-9.82.64A68.74,68.74,0,0,1,163,27.57c-1.95-.28-3.87-.64-5.79-1.06l-.34-.08c-1.5-.45-3-.94-4.49-1.45-2.41-.83-4.85-1.6-7.29-2.36A4.05,4.05,0,0,0,142,30a5.52,5.52,0,0,0,1.25.56l.29,0c4.79,1.68,9.58,3.4,14.52,4.64,3,.74,5.94,1.39,8.95,1.85l7.54,1.14c1.37.2,2.74.43,4.12.54l7.14.59c1.49.13,3,.31,4.47.37l11.88.42c1.14,0,2.29.06,3.44.06l-1.58.87-5.4,3c-1.69.94-3.48,1.75-5.22,2.59C191,47.84,188.56,49,186.09,50A181.93,181.93,0,0,1,168,56.44a128.35,128.35,0,0,1-19.12,4A176.69,176.69,0,0,1,127.43,62a161.45,161.45,0,0,1-22.3-1.35A212.63,212.63,0,0,1,82,56.14a164.78,164.78,0,0,1-22.9-7.61A145.69,145.69,0,0,1,45.58,42a103,103,0,0,1-12.53-8.15A96.37,96.37,0,0,1,16.59,17.32C12.28,11.69,8.26,5.83,4.21,0c0,0,0,0,0,0C5.29,2.19,6.35,4.39,7.48,6.55c1.24,2.36,2.53,4.7,3.82,7a95,95,0,0,0,8.14,12.72,86.06,86.06,0,0,0,10,11,88.18,88.18,0,0,0,12.12,9.13C50.39,52,60.21,56,70.14,59a193.8,193.8,0,0,0,31,6.71,162.33,162.33,0,0,0,32.08,1.31,169.62,169.62,0,0,0,31.23-4.55,146.58,146.58,0,0,0,15.14-4.87c4.93-1.83,9.78-3.83,14.53-6.09,2.76-1.32,5.49-2.67,8.17-4.14l6.67-3.67c2.09-1.15,4.15-2.32,6.19-3.54,1.11,0,2.2-.09,3.3-.18-.8.74-1.61,1.48-2.36,2.27l-4,4.25-4.59,4.94c-.74.81-1.42,1.68-2.12,2.54-2.3,2.79-4.66,5.56-6.87,8.43s-4.65,6-6.94,9q-7.43,9.24-14.68,18.61a0,0,0,0,1,0,0l-1.4,1.81.07-.09c-1.28,1.64-2.43,3.38-3.6,5.1h0c2.09-2.13,4.12-4.33,6.23-6.45q2.12-2.15,4.24-4.27c2.28-2.29,4.59-4.56,6.9-6.82,2.63-2.58,5.25-5.16,7.82-7.79s4.86-5,7.33-7.46l5.48-5.46c.78-.78,1.52-1.58,2.34-2.32q4.66-4.22,9.28-8.5c1-1,2.16-1.85,3.23-2.77q2.72-2.32,5.4-4.7c2.66-2.35,5.42-4.58,8.14-6.87l.85-.73,1.8-1.3c1-.73,2-1.47,3-2.21l1.28-1A9.79,9.79,0,0,0,247,26.88a4.09,4.09,0,0,0,1-1.8,9,9,0,0,0,.18-1.46v-.16Z"/><path d="M189.18,37.6c1.76.17,3.53.25,5.31.4,1.53.14,3.07.32,4.6.47-1.47.54-2.93,1.08-4.38,1.67-1.87.75-3.75,1.52-5.63,2.26l-.94.35a27,27,0,0,0-3.73-5.66c1.58.18,3.18.35,4.77.51ZM192,52c1.93-.27,3.8-.78,5.7-1.18,1.37-.3,2.74-.54,4.11-.81l2.55-.5-.28.2c-.56.39-1.08.86-1.6,1.3l-3.19,2.7q-2.24,1.91-4.45,3.83c-.41.35-.78.75-1.17,1.13-1,1-2,1.9-2.92,2.86l-.91.87c.16-1.09.28-2.19.41-3.28a43.45,43.45,0,0,0,.22-6.94c.51,0,1-.1,1.53-.18Zm54.2-28.08c-2.27,1.25-4.54,2.51-6.79,3.78l-.61-.25a4,4,0,0,0-2.18,0c-1.09.18-2.19.34-3.27.56a3.85,3.85,0,0,0-4.93.38,3,3,0,0,0-.25.25L223,29l-5.42.38c-1.7.11-3.4.27-5.1.31l-7.34.21c-1.71.05-3.44,0-5.15-.07-3.78-.06-7.58,0-11.35-.36-1.77-.16-3.51-.37-5.27-.59-2.24-.36-4.48-.73-6.7-1.19-1-.19-1.92-.37-2.86-.62l-4.68-1.21c-2-.53-4.08-1.17-6.11-1.75l-3.95-1.14c-.5-.14-1-.25-1.51-.38a8.74,8.74,0,0,0-2.81-.45,4.05,4.05,0,0,0-2,.55,4.06,4.06,0,0,0-1.46,5.56,4,4,0,0,0,2.26,1.83,31,31,0,0,0,3,.93l2.94.87c1.86.55,3.74,1.07,5.61,1.59l1.81.71c1.51.66,3,1.37,4.45,2.15a34.33,34.33,0,0,1,3.93,2.55,27.65,27.65,0,0,1,3.84,3.81,24.56,24.56,0,0,1,2.4,4.07,19.13,19.13,0,0,1,.92,3.31,39.23,39.23,0,0,1-.17,8.39c-.23,1.56-.49,3.12-.82,4.67a31,31,0,0,1-1.49,4.83,47.56,47.56,0,0,1-5.32,8.85,56.4,56.4,0,0,1-4.28,4.72q-2.25,2-4.62,3.9c-.49.36-1,.71-1.49,1.06-.28.19-.56.4-.85.59a5,5,0,0,0-2.15,2.86,4.39,4.39,0,0,0,1.12,4.25,4.22,4.22,0,0,0,1.91,1.1q-1.86,2.46-3.66,5s0,0,0,0c1.62-1.6,3.21-3.22,4.81-4.83a5.18,5.18,0,0,0,1.17-.13,8.22,8.22,0,0,0,3.11-1.49c1-.73,2-1.55,3-2.37A58,58,0,0,0,178,86.31a53.23,53.23,0,0,0,6.63-9q1.09-1,2.19-2c1.12-1,2.21-2,3.36-3L196.41,67a4.14,4.14,0,0,0,3.35.54,7.22,7.22,0,0,0,2.51-1.21A13.16,13.16,0,0,0,203.82,65c.37-.36.7-.76,1-1.15s.7-.78,1.07-1.15l3.21-2.39c2.15-1.57,4.31-3.12,6.39-4.78s3.9-3.07,5.81-4.67l3.91-3.3c.6-.5,1.22-1,1.83-1.48a10.05,10.05,0,0,0,3.23-3.51,3.94,3.94,0,0,0,0-4,3.25,3.25,0,0,0-.37-.52l.84-1,3.24-.8c.47-.12.94-.23,1.42-.33l.4-.06a13.19,13.19,0,0,0,2.91-.59,4.3,4.3,0,0,0,2.45-1.88,4.12,4.12,0,0,0,.41-3.15,4,4,0,0,0-1.19-1.94c1.92-1.48,3.83-3,5.74-4.44h0a0,0,0,0,0,0,0Z"/><path d="M35.64,26.39l-.13-.1.13.1ZM81.4,53.85l-.23-.09.23.09ZM233.57,38.16c-8.51,2.53-17,5.19-25.42,7.92-5.78,1.87-11.52,3.85-17.26,5.86q-6,2.09-12.1,3.8a153.17,153.17,0,0,1-20.45,4.18c-5.32.71-10.67,1-16,1.2-2.94.11-5.88.27-8.82.32-9.49.15-19,.41-28.45-.78A97.59,97.59,0,0,1,81.74,54a154.87,154.87,0,0,1-15.68-8c-2-1.11-3.89-2.2-5.84-3.29l-2.13-1.19c-.26-.15-.53-.28-.78-.44q-4.56-3-9.15-5.84c-.74-.47-1.5-.9-2.2-1.41l-4.25-3.08c-2-1.42-4-2.81-5.93-4.29a97.06,97.06,0,0,1-7.84-6.63,70.43,70.43,0,0,1-7-7.69l.11.15c-2.69-3.51-4.82-7.38-7.25-11.06,0,0,0,0,0,0,.92,1.92,1.8,3.84,2.73,5.75,1,2.06,2.12,4.05,3.32,6a75.67,75.67,0,0,0,7.64,10.17c1.37,1.56,2.83,3,4.3,4.51.83.81,1.65,1.64,2.52,2.4l4.11,3.55,4.35,3.74c.7.59,1.45,1.13,2.19,1.67q4.65,3.38,9.31,6.71c.72.51,1.49.94,2.23,1.4l5.66,3.46c1.15.7,2.31,1.41,3.47,2.09,1.66,1,3.38,1.88,5.09,2.77,2,1,4.06,2,6.14,3a99.24,99.24,0,0,0,25.81,7.83,131.57,131.57,0,0,0,22.09,1.08c3-.06,6,0,9-.19l10.45-.45a135.88,135.88,0,0,0,23.17-3A123.81,123.81,0,0,0,180,60.29c2.1-.71,4.17-1.48,6.24-2.27,1.4-.54,2.81-1.08,4.2-1.66l-.5.2L193.62,55l-.34.14q5.67-2.39,11.32-4.82,10.13-4.2,20.2-8.49l-.12,0,8.9-3.73h0s0,0,0,0Z"/><path d="M20.15,26.25l-.09,0,.09,0Zm89.72,33.53-.16,0,.16,0Zm51.65-.42-.17,0,.17,0ZM251.6,15.51q-10.24,6.06-20.52,12.08-8.58,5-17.18,10.07c-1.21.72-2.45,1.4-3.68,2.09-2.8,1.59-5.61,3.17-8.44,4.71-5.61,3.06-11.36,5.88-17.24,8.38l.2-.09a111.52,111.52,0,0,1-11.2,4,79.52,79.52,0,0,1-11.84,2.56q-4.8.63-9.63,1c-3.44.26-6.9.35-10.36.43-2.59.06-5.18,0-7.77,0h-8.76c-1.73,0-3.45-.09-5.17-.16-3.31-.14-6.6-.38-9.88-.81a99.3,99.3,0,0,1-13.85-2.88c-2.28-.66-4.54-1.43-6.77-2.23s-4.4-1.65-6.57-2.56c-4.14-1.76-8.2-3.7-12.23-5.69q-5-2.46-10.09-4.88C59,40.8,57.41,40,55.8,39.21q-5.14-2.53-10.33-5-2.27-1.09-4.56-2.13c-4.35-2-8.74-3.88-13.21-5.55A121.56,121.56,0,0,0,14,22.2C9.4,21.07,4.68,20.3,0,19.29c0,0,0,0,0,0,3.33,1.07,6.69,2.06,10,3.14s6.86,2.44,10.21,3.85q5.41,2.28,10.67,4.9C34.47,33,38,34.84,41.52,36.69l2.19,1.21,4.94,2.69Q52.72,42.8,56.8,45c.56.3,1.13.58,1.69.86l4.86,2.44c2.61,1.3,5.22,2.57,7.83,3.85.74.36,1.49.67,2.22,1l2.66,1.19C78,55.19,80,56,82,56.84c3.68,1.49,7.45,2.78,11.26,3.91a92.34,92.34,0,0,0,11.62,2.58A105.61,105.61,0,0,0,117,64.53c2,.08,3.95.11,5.93.13.66,0,1.33,0,2,0l4.55-.12,9.65-.24c1.34,0,2.69-.14,4-.22,2.14-.12,4.29-.26,6.42-.45,4-.34,8-.89,12-1.56q2.85-.49,5.65-1.16c2-.48,4-1.08,6-1.74,3.7-1.22,7.32-2.71,10.89-4.29s7.15-3.41,10.65-5.27,7.07-3.84,10.54-5.87c6.4-3.74,12.72-7.61,19-11.47,5.39-3.28,10.77-6.59,16.17-9.86,3.72-2.27,7.41-4.59,11.11-6.89h0Z"/><path d="M146.26,31.6h0Zm73.81-5.12-.23,0,.23,0Zm39.08-3.84c-2.49-.22-5-.46-7.47-.66-2.66-.2-5.33-.34-8-.48-5.09-.28-10.2-.45-15.31-.43s-10.16.34-15.22.8c-3.65.34-7.32.7-11,1.25-7,1.06-14,2.39-20.94,3.63-2.83.5-5.66,1-8.48,1.55-3.2.42-6.4.84-9.59,1.3-2.91.3-5.82.6-8.73.92-2.7.28-5.39.7-8.08,1.07l.1,0c-4.13.55-8.22,1.52-12.29,2.39,0,0,0,0,0,0,2.46-.1,4.91-.25,7.37-.41,1.75-.11,3.51-.26,5.27-.29,2.17,0,4.33-.07,6.5-.12,3.32-.07,6.64,0,9.95,0,1.53,0,3.07-.1,4.6-.16l5.44-.2c.34,0,.69-.06,1-.1l3.1-.3c2.37-.23,4.73-.48,7.1-.74.74-.08,1.49-.15,2.23-.25l-.41.05.4-.05-.34.05,2.16-.29-.75.1c4.56-.61,9.12-1.26,13.67-2q9.39-1.55,18.83-2.82c12.89-1.71,25.86-2.64,38.8-3.78,0,0,0,0,0,0Z"/></g></g></svg>