<svg xmlns="http://www.w3.org/2000/svg" viewBox="0 0 63.03 15.3"><defs><style>.cls-1{fill:#333;}</style></defs><title>hackeru-bk</title><g id="Layer_2" data-name="Layer 2"><g id="Layer_1-2" data-name="Layer 1"><path class="cls-1" d="M60.69,5.7,59,11.45a3.56,3.56,0,0,1-.67,1.41,2.47,2.47,0,0,1-2,.79c-.94,0-1.47-.26-1.6-.79a2.69,2.69,0,0,1,.14-1.41L56.52,5.7H54.18l-1.66,5.75a3.91,3.91,0,0,0-.13,2.33c.39,1,1.54,1.52,3.44,1.52a5.72,5.72,0,0,0,4.32-1.52,5.69,5.69,0,0,0,1.22-2.33L63,5.7Z"/><polygon class="cls-1" points="6.35 5.7 8.01 0 4.34 0 2.7 5.7 6.35 5.7"/><polygon class="cls-1" points="7.61 5.74 6.87 8.33 12.51 8.33 10.58 15.05 14.26 15.05 18.6 0 14.93 0 13.26 5.74 7.61 5.74"/><polygon class="cls-1" points="0 15.05 3.66 15.05 5.57 8.42 1.91 8.42 0 15.05"/><polygon class="cls-1" points="43.75 12.16 44.08 11.01 40.3 11.01 40.7 9.6 44.83 9.6 45.17 8.43 39.45 8.43 37.54 15.05 43.45 15.05 43.79 13.86 39.47 13.86 39.96 12.16 43.75 12.16"/><path class="cls-1" d="M51.66,9.06a1.31,1.31,0,0,0-.61-.46,3.58,3.58,0,0,0-1.21-.17H46L44.1,15.05h1.59l.75-2.6h1.68a1.35,1.35,0,0,1,.92.21c.13.15.14.43,0,.85l-.17.62a2.82,2.82,0,0,0-.09.57,2,2,0,0,0,0,.35h1.8l0-.16a.42.42,0,0,1-.19-.38,3.72,3.72,0,0,1,.14-.62l.13-.44a1.76,1.76,0,0,0,.07-1,.93.93,0,0,0-.61-.52,2.27,2.27,0,0,0,1.11-.65,2.38,2.38,0,0,0,.55-.93,1.38,1.38,0,0,0-.19-1.25m-1.5,1.44a1.06,1.06,0,0,1-.7.75,2.76,2.76,0,0,1-.86.11H46.76l.51-1.78h1.89a1.81,1.81,0,0,1,.77.12c.27.13.35.4.23.8"/><path class="cls-1" d="M19.9,8.43l-4.69,6.62h1.7l.93-1.36h2.87l.11,1.36h1.77l-.85-6.62Zm-1.29,4.12,1.76-2.61.22,2.61Z"/><polygon class="cls-1" points="38.76 8.43 36.65 8.43 32.85 11.15 33.64 8.43 32.04 8.43 30.13 15.05 31.73 15.05 32.37 12.84 33.34 12.16 34.91 15.05 37.01 15.05 34.77 11.15 38.76 8.43"/><path class="cls-1" d="M29.94,12.8H28.33a2.81,2.81,0,0,1-.64.76,2.2,2.2,0,0,1-1.44.48A1.38,1.38,0,0,1,25,13.49,2,2,0,0,1,25,11.82a3.59,3.59,0,0,1,1-1.73,2.36,2.36,0,0,1,1.58-.61,1.42,1.42,0,0,1,1.19.43,1.31,1.31,0,0,1,.2.72h1.63A1.69,1.69,0,0,0,30.4,9.4a2.66,2.66,0,0,0-2.56-1.1,4.55,4.55,0,0,0-2.66.82,4.68,4.68,0,0,0-1.86,2.67,2.75,2.75,0,0,0,.23,2.53,2.81,2.81,0,0,0,2.38.92,4.44,4.44,0,0,0,2.42-.68,4.33,4.33,0,0,0,1.59-1.76"/></g></g></svg>