<svg xmlns="http://www.w3.org/2000/svg" viewBox="0 0 102.35 24.85"><defs><style>.cls-1{fill:#fff;}</style></defs><title>hackeru-wt</title><g id="Layer_2" data-name="Layer 2"><g id="Layer_1-2" data-name="Layer 1"><path class="cls-1" d="M98.56,9.26l-2.7,9.34a6,6,0,0,1-1.1,2.29,4,4,0,0,1-3.31,1.27c-1.52,0-2.38-.42-2.59-1.27a4.27,4.27,0,0,1,.22-2.29l2.7-9.34H88L85.28,18.6a6.33,6.33,0,0,0-.2,3.77q.94,2.47,5.59,2.48t7-2.48a9,9,0,0,0,2-3.77l2.7-9.34Z"/><polygon class="cls-1" points="10.32 9.26 13 0 7.05 0 4.38 9.26 10.32 9.26"/><polygon class="cls-1" points="12.35 9.32 11.16 13.53 20.32 13.53 17.18 24.44 23.16 24.44 30.21 0 24.24 0 21.54 9.32 12.35 9.32"/><polygon class="cls-1" points="0 24.44 5.95 24.44 9.04 13.68 3.11 13.68 0 24.44"/><polygon class="cls-1" points="71.04 19.74 71.58 17.88 65.44 17.88 66.09 15.59 72.79 15.59 73.34 13.69 64.06 13.69 60.96 24.44 70.55 24.44 71.1 22.51 64.1 22.51 64.89 19.74 71.04 19.74"/><path class="cls-1" d="M83.89,14.71a2.14,2.14,0,0,0-1-.75,5.82,5.82,0,0,0-2-.27H74.72L71.61,24.44H74.2l1.21-4.22h2.73a2.15,2.15,0,0,1,1.49.35c.22.23.24.68.05,1.37l-.27,1a4.32,4.32,0,0,0-.16.93c0,.14,0,.34,0,.57h2.91l.07-.27a.62.62,0,0,1-.31-.61,5.46,5.46,0,0,1,.22-1l.21-.72a2.86,2.86,0,0,0,.12-1.69,1.55,1.55,0,0,0-1-.84,3.66,3.66,0,0,0,1.8-1,4,4,0,0,0,.9-1.51,2.36,2.36,0,0,0,.08-1.13,2.17,2.17,0,0,0-.39-.91m-2.43,2.35a1.75,1.75,0,0,1-1.15,1.21,4.55,4.55,0,0,1-1.39.17h-3l.84-2.89h3.07a3,3,0,0,1,1.24.19c.44.22.58.66.39,1.32"/><path class="cls-1" d="M32.32,13.69,24.7,24.44h2.76L29,22.23h4.66l.19,2.21h2.86L35.31,13.69Zm-2.1,6.69,2.85-4.24.36,4.24Z"/><polygon class="cls-1" points="62.93 13.69 59.52 13.69 53.35 18.11 54.63 13.69 52.03 13.69 48.92 24.44 51.53 24.44 52.56 20.84 54.14 19.74 56.7 24.44 60.09 24.44 56.47 18.11 62.93 13.69"/><path class="cls-1" d="M48.62,20.78H46A4.87,4.87,0,0,1,45,22a3.65,3.65,0,0,1-2.35.77,2.22,2.22,0,0,1-2-.9,3.22,3.22,0,0,1-.09-2.71,5.72,5.72,0,0,1,1.63-2.8,3.77,3.77,0,0,1,2.57-1,2.25,2.25,0,0,1,1.93.7A2.12,2.12,0,0,1,47,17.27h2.65a2.87,2.87,0,0,0-.29-2c-.65-1.19-2-1.78-4.16-1.78a7.43,7.43,0,0,0-4.32,1.33,7.59,7.59,0,0,0-3,4.34c-.5,1.74-.38,3.11.38,4.1s2,1.49,3.86,1.49A7.13,7.13,0,0,0,46,23.64a7,7,0,0,0,2.58-2.86"/></g></g></svg>