<svg xmlns="http://www.w3.org/2000/svg" viewBox="0 0 43 43"><defs><style>.cls-1{fill:#ffca06;}.cls-2{fill:#fff;}</style></defs><title>v</title><g id="Layer_2" data-name="Layer 2"><g id="Layer_1-2" data-name="Layer 1"><rect class="cls-1" width="43" height="43"/><path class="cls-2" d="M31.51,18.25,21.81,28,20,29.78a1.3,1.3,0,0,1-.91.37,1.29,1.29,0,0,1-.91-.37L16.35,28,11.5,23.1a1.25,1.25,0,0,1-.38-.91,1.27,1.27,0,0,1,.38-.91l1.82-1.82a1.3,1.3,0,0,1,.91-.38,1.31,1.31,0,0,1,.91.38l3.94,3.95,8.79-8.8a1.29,1.29,0,0,1,.91-.37,1.3,1.3,0,0,1,.91.37l1.82,1.82a1.31,1.31,0,0,1,.38.91A1.3,1.3,0,0,1,31.51,18.25Z"/></g></g></svg>